<?xml version="1.0" encoding="utf-8"?>
<!-- Generator: Adobe Illustrator 17.0.0, SVG Export Plug-In . SVG Version: 6.00 Build 0)  -->
<!DOCTYPE svg PUBLIC "-//W3C//DTD SVG 1.0//EN" "http://www.w3.org/TR/2001/REC-SVG-20010904/DTD/svg10.dtd">
<svg version="1.0" id="Capa_1" xmlns="http://www.w3.org/2000/svg" xmlns:xlink="http://www.w3.org/1999/xlink" x="0px" y="0px"
	 width="1400px" height="980px" viewBox="0 0 1400 980" enable-background="new 0 0 1400 980" xml:space="preserve">
<g>
	<defs>
		<rect id="SVGID_1_" width="1400" height="980"/>
	</defs>
	<clipPath id="SVGID_2_">
		<use xlink:href="#SVGID_1_"  overflow="visible"/>
	</clipPath>
	<rect clip-path="url(#SVGID_2_)" fill="#7DCFD3" width="1400" height="866"/>
	<g clip-path="url(#SVGID_2_)">
		<polygon fill="#7ADDCE" points="1255.2,284.4 1409.2,377.5 1409.2,1071.9 1255.2,1071.9 		"/>
		<rect x="1070.7" y="410.2" fill="#7ADDCE" width="154" height="661.7"/>
		<polygon fill="#B2EAE5" points="1223.5,263.4 1377.5,361.6 1377.5,1093.6 1223.5,1093.6 		"/>
		<polygon fill="#7ADDCE" points="892.9,509.7 1046.9,576.2 1046.9,1071.9 892.9,1071.9 		"/>
		<polygon fill="#B2EAE5" points="861.2,494.7 1015.2,564.2 1015.2,1082.1 861.2,1082.1 		"/>
		<rect x="1046.9" y="410.2" fill="#B2EAE5" width="154" height="661.7"/>
		<rect x="707.9" y="360.8" fill="#7ADDCE" width="154" height="711.1"/>
		<rect x="684.1" y="360.8" fill="#B2EAE5" width="154" height="711.1"/>
	</g>
	<g clip-path="url(#SVGID_2_)">
		<polygon fill="#7ADDCE" points="297.8,284.4 477.1,377.5 477.1,1071.9 297.8,1071.9 		"/>
		<rect x="83" y="410.2" fill="#7ADDCE" width="179.3" height="661.7"/>
		<polygon fill="#B2EAE5" points="260.9,263.4 440.3,361.6 440.3,1093.6 260.9,1093.6 		"/>
		<rect x="504.8" y="529.6" fill="#7ADDCE" width="179.3" height="542.3"/>
		<polygon fill="#7ADDCE" points="-123.9,509.7 55.4,576.2 55.4,1071.9 -123.9,1071.9 		"/>
		<polygon fill="#B2EAE5" points="-160.8,494.7 18.5,564.2 18.5,1082.1 -160.8,1082.1 		"/>
		<rect x="55.4" y="410.2" fill="#B2EAE5" width="179.3" height="661.7"/>
	</g>
	<g clip-path="url(#SVGID_2_)">
		<polygon fill="#B2EAE5" points="237.7,395 127.4,473.1 127.4,1055.4 237.7,1055.4 		"/>
		<rect x="259.6" y="500.5" fill="#B2EAE5" width="110.3" height="554.9"/>
		<polygon fill="#DCF9F8" points="260.4,377.4 150.1,459.7 150.1,1073.6 260.4,1073.6 		"/>
		<rect y="600.7" fill="#B2EAE5" width="110.3" height="454.8"/>
		<rect x="17" y="600.7" fill="#DCF9F8" width="110.3" height="454.8"/>
		<polygon fill="#B2EAE5" points="497.3,584 387,639.7 387,1055.4 497.3,1055.4 		"/>
		<polygon fill="#DCF9F8" points="520,571.4 409.7,629.6 409.7,1064 520,1064 		"/>
		<rect x="276.6" y="500.5" fill="#DCF9F8" width="110.3" height="554.9"/>
		<rect x="519.5" y="459.1" fill="#B2EAE5" width="110.3" height="596.3"/>
		<rect x="536.5" y="459.1" fill="#DCF9F8" width="110.3" height="596.3"/>
	</g>
	<g clip-path="url(#SVGID_2_)">
		<polygon fill="#B2EAE5" points="923.7,395 795.2,473.1 795.2,1055.4 923.7,1055.4 		"/>
		<rect x="949.1" y="500.5" fill="#B2EAE5" width="128.5" height="554.9"/>
		<polygon fill="#DCF9F8" points="950.1,377.4 821.6,459.7 821.6,1073.6 950.1,1073.6 		"/>
		<rect x="646.9" y="600.7" fill="#B2EAE5" width="128.5" height="454.8"/>
		<rect x="666.7" y="600.7" fill="#DCF9F8" width="128.5" height="454.8"/>
		<polygon fill="#B2EAE5" points="1225.9,584 1097.4,639.7 1097.4,1055.4 1225.9,1055.4 		"/>
		<polygon fill="#DCF9F8" points="1252.3,571.4 1123.8,629.6 1123.8,1064 1252.3,1064 		"/>
		<rect x="968.9" y="500.5" fill="#DCF9F8" width="128.5" height="554.9"/>
		<rect x="1251.7" y="459.1" fill="#B2EAE5" width="128.5" height="596.3"/>
		<rect x="1271.5" y="459.1" fill="#DCF9F8" width="128.5" height="596.3"/>
	</g>
	<rect x="373.4" y="767.4" clip-path="url(#SVGID_2_)" fill="#CC8D54" width="51.2" height="76"/>
	<rect x="392.3" y="766.8" clip-path="url(#SVGID_2_)" fill="#DD9F62" width="59.1" height="76.6"/>
	<polyline clip-path="url(#SVGID_2_)" fill="#B77844" points="392.8,767.4 386.9,752.7 364.9,752.7 372.9,767.4 	"/>
	<polyline clip-path="url(#SVGID_2_)" fill="#CC8D54" points="392.2,767.4 398.1,752.7 459.3,752.7 451.3,767.4 	"/>
	<path clip-path="url(#SVGID_2_)" fill="#4F3D39" d="M731.9,867.5c0,4.8-3.9,8.6-8.6,8.6h-0.9c-4.8,0-8.6-3.9-8.6-8.6l0,0
		c0-4.8,3.9-8.6,8.6-8.6h0.9C728.1,858.9,731.9,862.7,731.9,867.5L731.9,867.5z"/>
	<path clip-path="url(#SVGID_2_)" fill="#4F3D39" d="M1178,867.5c0,4.8-3.9,8.6-8.6,8.6h-0.9c-4.8,0-8.6-3.9-8.6-8.6l0,0
		c0-4.8,3.9-8.6,8.6-8.6h0.9C1174.1,858.9,1178,862.7,1178,867.5L1178,867.5z"/>
	<circle clip-path="url(#SVGID_2_)" fill="#4F3D39" cx="1014.1" cy="817.5" r="51.1"/>
	<circle clip-path="url(#SVGID_2_)" fill="#4F3D39" cx="553.6" cy="817.4" r="51.1"/>
	<g clip-path="url(#SVGID_2_)">
		<g>
			<g>
				<path fill="#4F3D39" d="M1159.9,750.1c-35.1,0-63.5,28.4-63.5,63.5h126.9C1223.3,778.6,1194.9,750.1,1159.9,750.1z"/>
			</g>
			<g>
				<circle fill="#4F3D39" cx="1159.9" cy="813.6" r="54.6"/>
			</g>
			<g>
				<circle fill="#4F3D39" cx="1159.9" cy="813.6" r="31.8"/>
			</g>
			<g>
				<circle fill="#4F3D39" cx="1159.9" cy="813.6" r="19.4"/>
			</g>
		</g>
	</g>
	<g clip-path="url(#SVGID_2_)">
		<g>
			<g>
				<path fill="#4F3D39" d="M713.8,750.1c-35.1,0-63.5,28.4-63.5,63.5h126.9C777.3,778.6,748.9,750.1,713.8,750.1z"/>
			</g>
			<g>
				<circle fill="#4F3D39" cx="713.8" cy="813.6" r="54.6"/>
			</g>
			<g>
				<circle fill="#4F3D39" cx="713.8" cy="813.6" r="31.8"/>
			</g>
			<g>
				<circle fill="#4F3D39" cx="713.8" cy="813.6" r="19.4"/>
			</g>
		</g>
	</g>
	<path clip-path="url(#SVGID_2_)" fill="#3E383C" d="M1026.9,759c-29.1,0-52.7,23.6-52.7,52.7h105.4
		C1079.6,782.6,1056,759,1026.9,759z"/>
	<circle clip-path="url(#SVGID_2_)" fill="#604D3F" cx="1027.6" cy="817.5" r="51.1"/>
	<circle clip-path="url(#SVGID_2_)" fill="#4F3D39" cx="1027.6" cy="817.5" r="29.8"/>
	<circle clip-path="url(#SVGID_2_)" fill="#CBC9A0" cx="1027.6" cy="817.5" r="18.1"/>
	<path clip-path="url(#SVGID_2_)" fill="#3E383C" d="M564.7,759c-29.1,0-52.7,23.6-52.7,52.7h105.4C617.4,782.6,593.8,759,564.7,759
		z"/>
	<circle clip-path="url(#SVGID_2_)" fill="#604D3F" cx="565.4" cy="817.4" r="51.1"/>
	<circle clip-path="url(#SVGID_2_)" fill="#4F3D39" cx="565.4" cy="817.4" r="29.8"/>
	<circle clip-path="url(#SVGID_2_)" fill="#CBC9A0" cx="565.4" cy="817.4" r="18.1"/>
	<polygon clip-path="url(#SVGID_2_)" fill="#3F6982" points="1228.4,678.5 1197.1,541 1065.4,541 1065.4,678.5 1065.4,678.5 
		1065.4,798 1275.7,798 1275.7,714.1 	"/>
	<rect x="481.4" y="457" clip-path="url(#SVGID_2_)" fill="#E2D088" width="595.5" height="341"/>
	<rect x="495" y="480.4" clip-path="url(#SVGID_2_)" fill="#684C5B" width="139.5" height="323.9"/>
	<rect x="516.5" y="646" clip-path="url(#SVGID_2_)" fill="#CC8D54" width="63" height="148.2"/>
	<polygon clip-path="url(#SVGID_2_)" fill="#5C4150" points="634.5,480.4 495,480.4 634.5,794.2 	"/>
	<rect x="537.7" y="646" clip-path="url(#SVGID_2_)" fill="#DD9F62" width="63" height="148.2"/>
	<rect x="601.5" y="738.1" clip-path="url(#SVGID_2_)" fill="#DD9F62" width="32.9" height="56.2"/>
	<rect x="569.2" y="738.1" clip-path="url(#SVGID_2_)" fill="#CC8D54" width="32.3" height="56.2"/>
	<rect x="275.5" y="720.1" clip-path="url(#SVGID_2_)" fill="#CC8D54" width="63" height="148.2"/>
	<rect x="296.7" y="720.1" clip-path="url(#SVGID_2_)" fill="#DD9F62" width="63" height="148.2"/>
	<rect x="360.5" y="812.2" clip-path="url(#SVGID_2_)" fill="#DD9F62" width="32.9" height="56.2"/>
	<rect x="328.2" y="812.2" clip-path="url(#SVGID_2_)" fill="#CC8D54" width="32.3" height="56.2"/>
	<polygon clip-path="url(#SVGID_2_)" fill="#5D80A4" points="1257.7,678.5 1094.8,678.5 1094.8,541 1226.5,541 	"/>
	<polygon clip-path="url(#SVGID_2_)" fill="#D3D8E4" points="1238.3,678.5 1114.2,678.5 1114.2,561.3 1213.2,561.3 	"/>
	<polyline clip-path="url(#SVGID_2_)" fill="#E7ECF7" points="1114.7,590.9 1137.5,561.3 1145.3,561.3 1114.2,622.3 1114.2,646.2 
		1172.8,561.3 1196.2,561.3 1114.2,678.5 1167.6,678.5 1216.6,577.2 1226.8,624.6 1193.4,678.5 1114.2,678.5 	"/>
	<polygon clip-path="url(#SVGID_2_)" fill="#5D80A4" points="1257.7,678.5 1094.8,678.5 1094.8,798 1305,798 1305,714.1 	"/>
	<polyline clip-path="url(#SVGID_2_)" fill="#5D5D5D" points="1274.4,738.5 1255.1,782.2 1255.1,798 1305,798 1305,738.5 	"/>
	<rect x="1252.1" y="757.2" clip-path="url(#SVGID_2_)" fill="#5D80A4" width="53" height="4.7"/>
	<rect x="1252.1" y="765.9" clip-path="url(#SVGID_2_)" fill="#5D80A4" width="53" height="4.7"/>
	<rect x="1252.1" y="774.6" clip-path="url(#SVGID_2_)" fill="#5D80A4" width="53" height="4.7"/>
	<rect x="1252.1" y="783.3" clip-path="url(#SVGID_2_)" fill="#5D80A4" width="53" height="4.7"/>
	<rect x="1252.1" y="747.9" clip-path="url(#SVGID_2_)" fill="#5D80A4" width="53" height="4.7"/>
	<rect x="650.3" y="457" clip-path="url(#SVGID_2_)" fill="#F9EFB7" width="426.5" height="341"/>
	<polygon clip-path="url(#SVGID_2_)" fill="#DD9F62" points="1298.5,730.7 1277,730.7 1280.7,719.3 1298.5,719.3 	"/>
	<path clip-path="url(#SVGID_2_)" fill="#426789" d="M1316.8,804.3c0,5.2-4.2,9.4-9.4,9.4H478.2c-5.2,0-9.4-4.2-9.4-9.4l0,0
		c0-5.2,4.2-9.4,9.4-9.4h829.2C1312.6,794.9,1316.8,799.1,1316.8,804.3L1316.8,804.3z"/>
	<g clip-path="url(#SVGID_2_)">
		<path fill="#3E383C" d="M1176.2,750.1c-35.1,0-63.5,28.4-63.5,63.5h126.9C1239.7,778.6,1211.3,750.1,1176.2,750.1z"/>
		<circle fill="#604D3F" cx="1176.2" cy="813.6" r="54.6"/>
		<circle fill="#ECE4C0" cx="1176.2" cy="813.6" r="31.8"/>
		<circle fill="#CBC9A0" cx="1176.2" cy="813.6" r="19.4"/>
	</g>
	<g clip-path="url(#SVGID_2_)">
		<path fill="#3E383C" d="M731.2,750.1c-35.1,0-63.5,28.4-63.5,63.5h126.9C794.7,778.6,766.3,750.1,731.2,750.1z"/>
		<circle fill="#604D3F" cx="731.2" cy="813.6" r="54.6"/>
		<circle fill="#ECE4C0" cx="731.2" cy="813.6" r="31.8"/>
		<circle fill="#CBC9A0" cx="731.2" cy="813.6" r="19.4"/>
	</g>
	<rect x="1076.8" y="794.9" clip-path="url(#SVGID_2_)" fill="#345670" width="17.9" height="18.7"/>
	<rect x="468.9" y="794.9" clip-path="url(#SVGID_2_)" fill="#345670" width="181.4" height="18.7"/>
	<rect x="1307.4" y="794.9" clip-path="url(#SVGID_2_)" fill="#426789" width="9.4" height="18.7"/>
	<polyline clip-path="url(#SVGID_2_)" fill="#BE1622" points="910.6,518.1 997.4,518.1 962.3,587.1 1041.7,587.1 860.8,728.7 
		903.6,623.4 854.9,623.4 	"/>
	<polyline opacity="0.5" clip-path="url(#SVGID_2_)" fill="#BE1622" points="841.5,518.1 928.3,518.1 893.2,587.1 972.6,587.1 
		791.7,728.7 834.5,623.4 785.8,623.4 	"/>
	<polygon opacity="0.2" clip-path="url(#SVGID_2_)" fill="#BE1622" points="832,629.6 834.5,623.4 785.8,623.4 841.5,518.1 
		755.1,518.1 699.4,623.4 748.1,623.4 705.3,728.7 	"/>
	<rect y="866" clip-path="url(#SVGID_2_)" fill="#67898B" width="1400" height="114"/>
	<path clip-path="url(#SVGID_2_)" fill="#7AD5C3" d="M495,794.2"/>
	<polygon clip-path="url(#SVGID_2_)" fill="#F9EFB7" points="479.3,866 650.3,794.9 634.5,794.9 453,866 	"/>
	<polyline clip-path="url(#SVGID_2_)" fill="#F9EFB7" points="637.6,794.9 637.6,813.6 507.7,866 466.6,866 	"/>
	<polyline clip-path="url(#SVGID_2_)" fill="#E2D088" points="634.5,794.9 464.7,866 305,866 495,794.2 	"/>
	<rect x="529.8" y="812.8" clip-path="url(#SVGID_2_)" fill="#CC8D54" width="54.2" height="53.1"/>
	<rect x="598.1" y="790" clip-path="url(#SVGID_2_)" fill="#CC8D54" width="51.2" height="76"/>
	<rect x="562.4" y="812.8" clip-path="url(#SVGID_2_)" fill="#CC8D54" width="54.2" height="53.1"/>
	<rect x="544.2" y="812.8" clip-path="url(#SVGID_2_)" fill="#DD9F62" width="54.2" height="53.1"/>
	<rect x="616.9" y="789.4" clip-path="url(#SVGID_2_)" fill="#DD9F62" width="59.1" height="76.6"/>
	<polyline clip-path="url(#SVGID_2_)" fill="#B77844" points="617.5,790 611.5,775.4 589.5,775.4 597.6,790 	"/>
	<polyline clip-path="url(#SVGID_2_)" fill="#CC8D54" points="616.9,790 622.8,775.4 684,775.4 675.9,790 	"/>
	<rect x="545" y="593.2" clip-path="url(#SVGID_2_)" fill="#CC8D54" width="40.8" height="52.8"/>
	<rect x="558.7" y="593.2" clip-path="url(#SVGID_2_)" fill="#DD9F62" width="40.8" height="52.8"/>
	<polyline clip-path="url(#SVGID_2_)" fill="#B77844" points="558.7,593.2 554.6,583.1 539.5,583.1 545,593.2 	"/>
	<polyline clip-path="url(#SVGID_2_)" fill="#CC8D54" points="558.7,593.2 562.8,583.1 605,583.1 599.5,593.2 	"/>
	<circle opacity="0.5" clip-path="url(#SVGID_2_)" fill="#F9EFB7" cx="162.2" cy="145" r="104"/>
	<circle opacity="0.1" clip-path="url(#SVGID_2_)" fill="#F9EFB7" cx="162.2" cy="145" r="134.5"/>
	<circle clip-path="url(#SVGID_2_)" fill="#F9EFB7" cx="162.2" cy="145" r="72.3"/>
	<path clip-path="url(#SVGID_2_)" fill="#FFFFFF" d="M440.3,145c0-14.7-11.9-26.7-26.7-26.7c-4.2,0-8.1,1-11.6,2.6
		c0-0.4,0-0.8,0-1.2c0-35.4-28.7-64.1-64.1-64.1c-31.6,0-57.9,22.9-63.1,52.9c-10.4,3.8-18.7,12-22.7,22.3
		c-3.4-1.5-7.2-2.4-11.2-2.4c-11.3,0-21,6.8-25.3,16.5H440.3z"/>
	<path clip-path="url(#SVGID_2_)" fill="#FFFFFF" d="M1480,162.1c0-14.7-11.9-26.7-26.7-26.7c-4.2,0-8.1,1-11.6,2.6
		c0-0.4,0-0.8,0-1.2c0-35.4-28.7-64.1-64.1-64.1c-31.6,0-57.9,22.9-63.1,52.9c-10.4,3.8-18.7,12-22.7,22.3
		c-3.4-1.5-7.2-2.4-11.2-2.4c-11.3,0-21,6.8-25.3,16.5H1480z"/>
	<path clip-path="url(#SVGID_2_)" fill="#FFFFFF" d="M216.2,247.7c0-6.3-5.1-11.4-11.4-11.4c-3.6,0-6.7,1.6-8.8,4.2
		c-2.9-8.4-10.9-14.4-20.3-14.4c-3.3,0-6.5,0.8-9.3,2.1c-2.3-23.2-21.9-41.3-45.7-41.3c-21.1,0-38.8,14.2-44.3,33.6
		c-2.1-0.4-4.3-0.7-6.5-0.7c-16.2,0-29.5,12.2-31.3,27.8H216.2z"/>
	<path clip-path="url(#SVGID_2_)" fill="#FFFFFF" d="M1103,293.8c0-6.3-5.1-11.4-11.4-11.4c-3.6,0-6.7,1.6-8.8,4.2
		c-2.9-8.4-10.9-14.4-20.3-14.4c-3.3,0-6.5,0.8-9.3,2.1c-2.3-23.2-21.9-41.3-45.7-41.3c-21.1,0-38.8,14.2-44.3,33.6
		c-2.1-0.4-4.3-0.7-6.5-0.7c-16.2,0-29.5,12.2-31.3,27.8H1103z"/>
	<g clip-path="url(#SVGID_2_)">
		<rect x="117.3" y="703.9" fill="#CBC9A0" width="55.2" height="5.2"/>
		<g>
			<circle fill="#604D3F" cx="119.9" cy="853.2" r="12.8"/>
			<circle fill="#ECE4C0" cx="119.9" cy="853.2" r="6.9"/>
			<circle fill="#CBC9A0" cx="119.9" cy="853.2" r="3.3"/>
		</g>
		<rect x="117.3" y="705.9" fill="#CBC9A0" width="5.1" height="155.9"/>
		<rect x="196.3" y="703.9" fill="#CBC9A0" width="55.2" height="5.2"/>
		<rect x="196.3" y="705.9" fill="#CBC9A0" width="5.1" height="155.9"/>
		<rect x="60.1" y="854.9" fill="#CBC9A0" width="138.7" height="6.9"/>
		<rect x="145" y="701" fill="#BE1622" width="39.9" height="11"/>
		<rect x="109.3" y="741.9" fill="#CC8D54" width="61.4" height="113"/>
		<rect x="130" y="741.9" fill="#DD9F62" width="61.4" height="113"/>
		<rect x="223.9" y="701" fill="#BE1622" width="39.9" height="11"/>
		<rect x="70.6" y="795.6" fill="#CC8D54" width="61.4" height="59.3"/>
		<rect x="91.3" y="795.6" fill="#DD9F62" width="61.4" height="59.3"/>
		<g>
			<circle fill="#604D3F" cx="198.9" cy="853.2" r="12.8"/>
			<circle fill="#ECE4C0" cx="198.9" cy="853.2" r="6.9"/>
			<circle fill="#CBC9A0" cx="198.9" cy="853.2" r="3.3"/>
		</g>
	</g>
</g>
</svg>
